<svg width="77" height="80" viewBox="0 0 77 80" fill="none" xmlns="http://www.w3.org/2000/svg">
<g clip-path="url(#clip0_63_68)">
<path d="M52.0058 18.3939C51.3539 19.6018 50.4882 20.6729 49.514 21.5873C48.5387 22.5041 47.4581 23.2754 46.3329 23.9273C45.2077 24.5816 44.0378 25.1265 42.853 25.5992C41.6651 26.0694 40.4686 26.475 39.253 26.8208C36.8217 27.5162 34.349 27.9914 31.8773 28.3398C29.4057 28.6943 26.933 28.9008 24.489 28.9655L24.6708 22.4195C27.051 22.6671 29.4078 22.9743 31.7614 23.1808C34.114 23.3799 36.4654 23.4595 38.8105 23.3289C41.1599 23.1896 43.5071 22.9009 45.7661 22.1931C46.8934 21.8348 48.0016 21.3795 49.0481 20.7538C50.0936 20.1293 51.0805 19.3331 51.9207 18.3168L52.0058 18.3939Z" fill="url(#paint0_linear_63_68)"/>
<path d="M76.9999 0.142972C75.3886 0.160388 73.788 0.333305 72.2129 0.646795C70.6389 0.968994 69.0882 1.41684 67.5737 1.98535C66.0593 2.55635 64.5746 3.22065 63.1218 3.97701C62.3996 4.35021 61.6626 4.75078 60.9277 5.13891C60.1907 5.52829 59.4515 5.91891 58.7028 6.29584C57.9519 6.6678 57.199 7.04474 56.429 7.39057C56.2375 7.48014 56.044 7.56224 55.8504 7.64684C55.6558 7.73019 55.4633 7.81851 55.2665 7.89564L54.6784 8.13822L54.0839 8.36712C53.2894 8.66568 52.48 8.93687 51.6569 9.16453C51.2474 9.28644 50.8294 9.3785 50.4136 9.48175L49.784 9.61113L49.4681 9.67582L49.1554 9.72931C45.8085 10.314 42.452 10.3016 39.2241 10.2605L36.811 10.2207C35.9729 10.1995 35.1731 10.1697 34.3925 10.1436C33.6119 10.1199 32.8514 10.115 32.1123 10.1299C31.3742 10.1461 30.6574 10.2033 29.9788 10.2953C29.3003 10.3911 28.66 10.5342 28.091 10.7332C27.521 10.9335 27.0296 11.1898 26.6372 11.4921C26.2437 11.7919 25.9438 12.1365 25.7013 12.542C25.5003 12.8754 25.3407 13.3183 25.245 13.8644C25.1514 14.408 25.1259 15.0425 25.1812 15.6894C25.2099 16.0165 25.2567 16.3673 25.3227 16.7368C25.3907 17.1075 25.4737 17.4957 25.5694 17.8962C25.763 18.7036 26.0076 19.552 26.2607 20.4962L26.3564 20.8557L26.4521 21.2264C26.484 21.3508 26.5159 21.4777 26.5468 21.6108C26.5787 21.7427 26.6095 21.8758 26.6351 21.9928L26.7957 22.723L26.9445 23.4532C27.137 24.4273 27.3072 25.4001 27.4582 26.3692C27.605 27.3383 27.7337 28.3036 27.8517 29.264C28.0857 31.1847 28.2697 33.0843 28.4505 34.9553L28.5856 36.3623C28.6324 36.8425 28.6739 37.3252 28.7153 37.8078C28.7962 38.7744 28.861 39.746 28.91 40.7226C29.0089 42.6757 29.0461 44.6487 28.9897 46.6366C28.9302 48.6233 28.7877 50.6274 28.4899 52.6265C28.2006 54.6244 27.7613 56.6173 27.1551 58.5567C26.8541 59.527 26.4979 60.4812 26.1022 61.4117C25.7055 62.3422 25.2642 63.2503 24.7686 64.1199C23.7848 65.8565 22.6532 67.4227 21.4142 68.8533C20.1741 70.2827 18.8159 71.5678 17.3398 72.6737C16.6006 73.2248 15.8327 73.7336 15.0308 74.1802C14.6299 74.4029 14.2225 74.6144 13.8035 74.8035C13.595 74.9017 13.3845 74.9876 13.1696 75.0784C12.9357 75.1742 12.7017 75.2563 12.4688 75.3297C11.5382 75.6195 10.6161 75.7526 9.69931 75.7875C8.78254 75.8186 7.87003 75.7489 6.9639 75.5648C6.05883 75.3794 5.15801 75.0846 4.28591 74.6305C3.417 74.1765 2.57256 73.5495 1.85254 72.7048C1.67281 72.4946 1.50264 72.2706 1.34417 72.033C1.18464 71.7967 1.03681 71.5479 0.90387 71.2879C0.768801 71.0291 0.649685 70.7592 0.545458 70.483C0.440168 70.2068 0.351895 69.9232 0.278511 69.6371C0.203 69.351 0.149823 69.0611 0.104091 68.7712C0.0626128 68.4777 0.0338973 68.204 0.0168808 67.9191C-0.0160889 67.3531 -0.00651704 66.7759 0.0636763 66.2061C0.196618 65.0641 0.559284 63.9656 1.06765 63.0289C1.57602 62.0884 2.21627 61.301 2.90225 60.6379C3.59142 59.9736 4.33377 59.4337 5.09526 58.9722C5.85782 58.5119 6.64271 58.1337 7.4393 57.8177C9.03141 57.1883 10.6969 56.8263 12.3518 56.723C14.0088 56.626 15.6572 56.7678 17.2611 57.0999C18.867 57.4259 20.4325 57.9334 21.9544 58.5542C20.3751 58.1797 18.7819 57.911 17.1919 57.8041C15.6019 57.702 14.0141 57.7593 12.4709 58.0529C12.0848 58.125 11.7019 58.2108 11.3223 58.3079C10.9436 58.4086 10.5682 58.5231 10.197 58.65C9.82693 58.7818 9.46108 58.9224 9.09841 59.0804C8.73681 59.2384 8.37946 59.4088 8.0285 59.5917C6.62782 60.3219 5.30904 61.2674 4.28166 62.4467C3.76904 63.0339 3.33724 63.682 3.0352 64.3687C2.73209 65.0566 2.56192 65.7769 2.53214 66.5084C2.51619 66.8741 2.53321 67.2424 2.58107 67.6131C2.63105 67.9937 2.70337 68.3334 2.81185 68.6518C3.02562 69.2912 3.36596 69.8336 3.81689 70.284C4.7209 71.1859 6.04926 71.6984 7.41696 71.8626C8.10294 71.946 8.80594 71.9422 9.49511 71.8626C10.1832 71.783 10.8596 71.6175 11.4733 71.3774C11.6254 71.3165 11.7753 71.253 11.9168 71.1821C12.0753 71.1 12.2422 71.0217 12.4018 70.9308C12.7261 70.7579 13.0452 70.5639 13.36 70.3598C13.9917 69.9518 14.6043 69.4878 15.1967 68.984C15.7881 68.4777 16.3613 67.9353 16.9069 67.3543C17.4567 66.7783 17.9821 66.1675 18.4809 65.5319C19.4764 64.258 20.3708 62.8746 21.1015 61.4254C21.8247 59.9773 22.4139 58.436 22.8542 56.8176C23.2924 55.1991 23.6019 53.516 23.7858 51.7918C23.8784 50.9297 23.9496 50.0613 23.9954 49.1843C24.039 48.3073 24.0592 47.424 24.0592 46.5371C24.0581 44.7619 23.973 42.9705 23.8284 41.1716C23.755 40.2722 23.6689 39.3703 23.5763 38.4672C23.5274 38.0156 23.4785 37.5628 23.4253 37.11L23.2615 35.7167C23.0414 33.8544 22.8223 32.0207 22.5628 30.2219C22.3022 28.4243 22.0065 26.6628 21.6386 24.9523L21.4971 24.3128L21.3472 23.6796C21.3216 23.5702 21.2972 23.4769 21.2738 23.3823C21.2504 23.289 21.2248 23.1907 21.1972 23.09L21.1142 22.7864L21.026 22.4742C20.7835 21.6283 20.5027 20.6977 20.2485 19.6976C20.122 19.195 20.0007 18.6712 19.8933 18.1239C19.788 17.574 19.6997 16.9968 19.6381 16.3885C19.5211 15.1669 19.5296 13.898 19.7455 12.5943C19.854 11.9436 20.0124 11.2843 20.2421 10.6337C20.4708 9.98433 20.7643 9.34242 21.1313 8.74405C21.478 8.17803 21.8715 7.65803 22.3065 7.18904C22.7415 6.72254 23.2126 6.31326 23.6976 5.96742C24.6718 5.27451 25.6917 4.82916 26.6744 4.54428C27.1668 4.39873 27.6529 4.29548 28.1304 4.21835C28.609 4.13997 29.078 4.09146 29.5406 4.0616C30.4649 4.00065 31.3593 4.02801 32.2282 4.08648C33.0982 4.14246 33.9426 4.25318 34.7669 4.37136C35.589 4.48705 36.3919 4.63011 37.1577 4.74829L37.7533 4.83911L38.3573 4.93365L39.557 5.12772C42.7381 5.65767 45.8287 6.16895 48.9023 6.13537L49.1905 6.13288L49.4745 6.12168L50.0445 6.09556C50.4242 6.06073 50.805 6.03833 51.1857 5.98608C51.9483 5.90149 52.7108 5.75843 53.4734 5.59049C54.237 5.42752 54.9985 5.21355 55.76 4.98217C56.5215 4.75203 57.2819 4.48954 58.0402 4.21213C58.7985 3.93222 59.5579 3.63864 60.3183 3.33759C61.0809 3.03529 61.8328 2.72554 62.6123 2.42448C64.1598 1.82114 65.737 1.31483 67.3281 0.908037C68.9202 0.503734 70.5357 0.227564 72.1533 0.0845031C73.7731 -0.0461179 75.396 -0.0262137 76.9999 0.142972Z" fill="url(#paint1_linear_63_68)"/>
<path d="M72.4693 3.44836C70.1296 4.09401 67.8079 4.94988 65.6734 6.17648C64.613 6.79973 63.5973 7.51503 62.705 8.3734C62.4774 8.57866 62.27 8.81378 62.0573 9.03397C61.952 9.14717 61.8542 9.26908 61.7532 9.38602C61.6521 9.50296 61.5521 9.6199 61.4586 9.7443L61.1735 10.1088L60.9055 10.487L60.7726 10.6748L60.6481 10.8701L60.4014 11.2583C60.0919 11.7907 59.7973 12.3182 59.5591 12.8705C59.3155 13.4166 59.0986 13.9627 58.9316 14.5138C58.888 14.6507 58.8401 14.785 58.8093 14.9244L58.6966 15.3324C58.6636 15.4692 58.6381 15.6073 58.6072 15.7429L58.5594 15.9444L58.5253 16.1497C58.42 16.6908 58.3732 17.227 58.3435 17.7794C58.3158 18.3292 58.3403 18.8977 58.3934 19.4774C58.4466 20.0571 58.5328 20.648 58.6498 21.2551C58.8731 22.4655 59.2081 23.7232 59.5665 25.0369C59.7452 25.6975 59.9292 26.3755 60.11 27.0721C60.294 27.7625 60.4663 28.4592 60.6333 29.1571C60.796 29.8574 60.9608 30.5566 61.1076 31.2632L61.3288 32.3231L61.533 33.3892C62.0733 36.2355 62.4519 39.1427 62.6699 42.0848C62.7667 43.559 62.838 45.0381 62.8358 46.5297C62.8497 47.2723 62.8263 48.0212 62.8156 48.7676C62.8071 49.1408 62.7837 49.5165 62.7678 49.8897C62.7497 50.2642 62.7359 50.6374 62.7029 51.0131L62.6189 52.1364C62.588 52.5109 62.5434 52.8865 62.5061 53.2598C62.4679 53.6342 62.4296 54.0086 62.3732 54.3831L62.2169 55.5039C62.1584 55.8771 62.0903 56.2503 62.0275 56.6223L61.9308 57.1809C61.8957 57.3662 61.8542 57.5516 61.817 57.7369L61.5819 58.8478L61.3054 59.95L61.165 60.4999L61.0055 61.0448C60.897 61.408 60.7949 61.7725 60.6811 62.1333C60.4333 62.8486 60.2046 63.5689 59.9154 64.2667L59.708 64.793C59.6388 64.9684 59.5718 65.1438 59.4921 65.3142L59.0294 66.3418L58.9125 66.598L58.7859 66.8481L58.5306 67.3469L58.2743 67.8445C58.2307 67.9266 58.1903 68.0112 58.1446 68.0921L58.0053 68.3334L57.4469 69.295C57.3565 69.4568 57.2544 69.6098 57.1534 69.764L56.8503 70.2243C56.4578 70.8488 56.009 71.4198 55.5793 72.0057C54.6796 73.1365 53.7288 74.2089 52.6971 75.1518L52.3143 75.5101L52.1228 75.6892C52.058 75.749 51.9846 75.8074 51.9155 75.8659C51.6357 76.0985 51.3613 76.3399 51.0689 76.5476L50.636 76.8686C50.4903 76.9731 50.3393 77.0676 50.1915 77.1659C50.0426 77.2629 49.8958 77.3637 49.7448 77.4557L49.2853 77.7182C48.0569 78.4074 46.7594 78.9336 45.4077 79.2297C44.058 79.5245 42.6563 79.5967 41.2705 79.3777L41.011 79.3392C40.9249 79.3267 40.8387 79.3006 40.7526 79.2832L40.2378 79.1588C40.0655 79.124 39.8986 79.058 39.7295 79.002L39.2253 78.8279C39.0594 78.7619 38.8967 78.6823 38.7329 78.6089C38.5691 78.5318 38.4064 78.4646 38.2448 78.3775C38.0831 78.2892 37.9204 78.2034 37.764 78.1026C37.6045 78.0081 37.4503 77.9036 37.2971 77.7978C36.6835 77.3724 36.1124 76.8524 35.5976 76.2466C35.0829 75.6432 34.6394 74.9242 34.3054 74.1255C34.2608 74.0285 34.2278 73.9215 34.1895 73.8195C34.1533 73.7162 34.1129 73.6155 34.0831 73.5085C34.0225 73.2945 33.9555 73.0855 33.914 72.8641C33.8119 72.4299 33.762 71.9809 33.7449 71.5355C33.729 71.0889 33.7524 70.6435 33.8109 70.2119C33.8704 69.7802 33.9662 69.3635 34.0874 68.9654C34.3288 68.168 34.6702 67.4477 35.0658 66.8008C35.4604 66.1514 35.9114 65.5754 36.3931 65.0492C36.8781 64.528 37.3939 64.0578 37.9427 63.646C38.216 63.4382 38.5032 63.2467 38.7776 63.075C38.9148 62.9842 39.0573 62.9033 39.1977 62.8187C39.337 62.7329 39.4795 62.6545 39.622 62.5761C40.7611 61.9479 41.9522 61.4652 43.1679 61.1343C43.7751 60.9689 44.3909 60.8482 45.0078 60.7636C45.6246 60.6803 46.2447 60.6317 46.8658 60.6342C47.4858 60.6355 48.1027 60.6803 48.7131 60.7624C49.3236 60.8457 49.9266 60.9689 50.5222 61.1169C51.1178 61.2687 51.7049 61.4478 52.2866 61.6444C52.8684 61.8397 53.4427 62.0574 54.0127 62.29C53.4204 62.1569 52.8269 62.0313 52.2345 61.9205C51.6411 61.8111 51.0465 61.7227 50.452 61.6593C49.2641 61.5262 48.075 61.5088 46.9104 61.6493C45.7491 61.7937 44.5983 62.0872 43.4965 62.5139C42.3925 62.9381 41.3322 63.4967 40.3389 64.1747C40.2144 64.2593 40.09 64.3439 39.9698 64.4347C39.8486 64.5243 39.7252 64.6101 39.6071 64.7059C39.3636 64.8925 39.1403 65.0741 38.9222 65.2732C38.4851 65.6687 38.0799 66.1129 37.7109 66.5843C37.3461 67.0595 37.0174 67.5646 36.7537 68.0946C36.4889 68.6233 36.2825 69.1731 36.1687 69.7217C36.1113 69.9954 36.073 70.2679 36.0592 70.5353C36.0464 70.8028 36.056 71.064 36.0879 71.319C36.1209 71.5728 36.1687 71.8241 36.2496 72.0617C36.2804 72.1836 36.3336 72.2981 36.3761 72.415C36.3963 72.4735 36.4282 72.5282 36.4538 72.5854C36.4825 72.6414 36.5027 72.6999 36.5357 72.7546C37.0004 73.6416 37.7789 74.3768 38.668 74.8657C38.7797 74.9267 38.8903 74.9864 39.0063 75.0386C39.119 75.0959 39.236 75.1406 39.3508 75.1891C39.4668 75.2364 39.5933 75.27 39.7124 75.3123C39.8337 75.3509 39.9539 75.3957 40.0762 75.4305L40.4484 75.5126C40.5718 75.5387 40.693 75.5748 40.8206 75.5835L41.1971 75.6295C41.2599 75.6357 41.3216 75.6494 41.3854 75.6507L41.5758 75.6557C42.5872 75.6992 43.6135 75.5325 44.609 75.1979C45.6044 74.8632 46.5659 74.3457 47.4614 73.7138L47.7953 73.4749C47.9049 73.3916 48.0112 73.302 48.1197 73.2174C48.2271 73.1303 48.3367 73.0482 48.4419 72.9574L48.7525 72.6787C48.9641 72.5008 49.1556 72.2931 49.3534 72.099C49.4023 72.0493 49.4523 72.0032 49.5012 71.9498L49.6512 71.7831L49.95 71.4497L50.2489 71.1175L50.3978 70.952C50.4478 70.8973 50.4924 70.8351 50.5392 70.7779L51.0997 70.075C51.2922 69.8474 51.4581 69.5936 51.6336 69.3498L51.8952 68.9828C51.9814 68.8596 52.0739 68.7427 52.1516 68.6121C52.4717 68.0971 52.8109 67.6019 53.0949 67.0595L53.3183 66.6615C53.3927 66.5296 53.4703 66.399 53.5352 66.2596L53.9436 65.4374C54.4616 64.324 54.938 63.1845 55.3166 61.989C55.5262 61.403 55.6782 60.786 55.8569 60.1852C55.9377 59.8804 56.0079 59.5694 56.0845 59.2621L56.1972 58.8006L56.293 58.3316L56.4823 57.3936L56.6397 56.4432C56.6652 56.2852 56.695 56.1272 56.7184 55.968L56.7811 55.4878C56.8215 55.1668 56.8683 54.8484 56.9056 54.5261C56.9651 53.878 57.0428 53.2361 57.08 52.5818C57.1013 52.2558 57.13 51.9311 57.1459 51.604L57.1863 50.6212C57.2044 50.294 57.2055 49.9644 57.2097 49.6347C57.2129 49.305 57.2225 48.9766 57.2214 48.6457C57.214 47.9839 57.2214 47.3246 57.1927 46.6603C57.181 46.3281 57.1757 45.9972 57.1597 45.6651L57.1066 44.6686C57.0917 44.3365 57.0683 44.0031 57.0449 43.6709C57.0204 43.3375 57.0013 43.0054 56.9736 42.672C56.7545 40.0061 56.4429 37.3315 56.043 34.6543C55.8505 33.3145 55.6251 31.9772 55.4007 30.6349C55.2783 29.9657 55.1699 29.2939 55.0422 28.6234C54.9221 27.9566 54.7902 27.2761 54.6551 26.577C54.3935 25.1713 54.134 23.6959 53.9798 22.1234C53.9021 21.341 53.8607 20.5299 53.8628 19.7026C53.866 18.8766 53.9106 18.0319 54.034 17.1847C54.0574 16.9732 54.0978 16.7618 54.1361 16.5515C54.1744 16.3413 54.2127 16.131 54.2669 15.922L54.4201 15.2976C54.4796 15.0935 54.5477 14.8933 54.6115 14.6917L54.7104 14.3919L54.8232 14.1008C54.9008 13.908 54.9774 13.7152 55.0593 13.5273C55.2347 13.1579 55.4038 12.7859 55.607 12.445C55.9909 11.7434 56.4461 11.1164 56.9205 10.533L57.2874 10.11C57.4107 9.97195 57.5416 9.84257 57.667 9.71071C57.9159 9.442 58.1871 9.20564 58.4488 8.96306C59.525 8.0313 60.663 7.27867 61.834 6.67781C62.9996 6.07074 64.178 5.60299 65.3596 5.20491C67.7217 4.41994 70.1094 4.0007 72.4693 3.44836Z" fill="url(#paint2_linear_63_68)"/>
</g>
<defs>
<linearGradient id="paint0_linear_63_68" x1="24.4899" y1="23.6412" x2="54.1704" y2="23.6412" gradientUnits="userSpaceOnUse">
<stop stop-color="#FFF33B"/>
<stop offset="0.0401" stop-color="#FEE72E"/>
<stop offset="0.1171" stop-color="#FED51B"/>
<stop offset="0.1964" stop-color="#FDCA10"/>
<stop offset="0.2809" stop-color="#FDC70C"/>
<stop offset="0.6685" stop-color="#F3903F"/>
<stop offset="0.8876" stop-color="#ED683C"/>
<stop offset="1" stop-color="#E93E3A"/>
</linearGradient>
<linearGradient id="paint1_linear_63_68" x1="-1.53258" y1="37.8984" x2="77.1233" y2="37.8984" gradientUnits="userSpaceOnUse">
<stop stop-color="#FFF33B"/>
<stop offset="0.0401" stop-color="#FEE72E"/>
<stop offset="0.1171" stop-color="#FED51B"/>
<stop offset="0.1964" stop-color="#FDCA10"/>
<stop offset="0.2809" stop-color="#FDC70C"/>
<stop offset="0.6685" stop-color="#F3903F"/>
<stop offset="0.8876" stop-color="#ED683C"/>
<stop offset="1" stop-color="#E93E3A"/>
</linearGradient>
<linearGradient id="paint2_linear_63_68" x1="32.0993" y1="41.4794" x2="73.0647" y2="41.4794" gradientUnits="userSpaceOnUse">
<stop stop-color="#FFF33B"/>
<stop offset="0.0401" stop-color="#FEE72E"/>
<stop offset="0.1171" stop-color="#FED51B"/>
<stop offset="0.1964" stop-color="#FDCA10"/>
<stop offset="0.2809" stop-color="#FDC70C"/>
<stop offset="0.6685" stop-color="#F3903F"/>
<stop offset="0.8876" stop-color="#ED683C"/>
<stop offset="1" stop-color="#E93E3A"/>
</linearGradient>
<clipPath id="clip0_63_68">
<rect width="77" height="79.5109" fill="white"/>
</clipPath>
</defs>
</svg>
